<svg viewBox="0 0 49 59" fill="none" xmlns="http://www.w3.org/2000/svg">
<path d="M16.375 4.875V0.75H32.625V4.875H16.375ZM22.4688 35.6063H26.5313V19.7938H22.4688V35.6063ZM24.5 58.4313C21.1597 58.4313 18.0113 57.7781 15.0547 56.4719C12.0981 55.1656 9.51389 53.3896 7.30208 51.1437C5.09028 48.8979 3.34115 46.274 2.05469 43.2719C0.768229 40.2698 0.125 37.0729 0.125 33.6813C0.125 30.2896 0.768229 27.0927 2.05469 24.0906C3.34115 21.0885 5.09028 18.4646 7.30208 16.2188C9.51389 13.9729 12.0981 12.1969 15.0547 10.8906C18.0113 9.58438 21.1597 8.93125 24.5 8.93125C27.5243 8.93125 30.3681 9.44688 33.0312 10.4781C35.6944 11.5094 38.0642 12.9417 40.1406 14.775L43.5938 11.2688L46.4375 14.1562L42.9844 17.6625C44.6094 19.4958 45.9974 21.7188 47.1484 24.3313C48.2995 26.9438 48.875 30.0604 48.875 33.6813C48.875 37.0729 48.2318 40.2698 46.9453 43.2719C45.6589 46.274 43.9097 48.8979 41.6979 51.1437C39.4861 53.3896 36.9019 55.1656 33.9453 56.4719C30.9887 57.7781 27.8403 58.4313 24.5 58.4313ZM24.5 54.3063C30.1424 54.3063 34.9384 52.301 38.888 48.2906C42.8377 44.2802 44.8125 39.4104 44.8125 33.6813C44.8125 27.9521 42.8377 23.0823 38.888 19.0719C34.9384 15.0615 30.1424 13.0563 24.5 13.0563C18.8576 13.0563 14.0616 15.0615 10.112 19.0719C6.16233 23.0823 4.1875 27.9521 4.1875 33.6813C4.1875 39.4104 6.16233 44.2802 10.112 48.2906C14.0616 52.301 18.8576 54.3063 24.5 54.3063Z" fill="#F5F5F5"/>
</svg>
