<svg width="55" height="56" viewBox="0 0 55 56" fill="none" xmlns="http://www.w3.org/2000/svg">
<path d="M36.4278 8.0625C35.6551 8.0625 35.0052 7.79573 34.4781 7.26218C33.951 6.72864 33.6875 6.07551 33.6875 5.30281C33.6875 4.5301 33.9543 3.88021 34.4878 3.35313C35.0214 2.82604 35.6745 2.5625 36.4472 2.5625C37.2199 2.5625 37.8698 2.82927 38.3969 3.36282C38.924 3.89637 39.1875 4.54949 39.1875 5.32219C39.1875 6.0949 38.9207 6.74479 38.3872 7.27188C37.8536 7.79896 37.2005 8.0625 36.4278 8.0625ZM36.4278 53.4375C35.6551 53.4375 35.0052 53.1707 34.4781 52.6372C33.951 52.1036 33.6875 51.4505 33.6875 50.6778C33.6875 49.9051 33.9543 49.2552 34.4878 48.7281C35.0214 48.201 35.6745 47.9375 36.4472 47.9375C37.2199 47.9375 37.8698 48.2043 38.3969 48.7378C38.924 49.2714 39.1875 49.9245 39.1875 50.6972C39.1875 51.4699 38.9207 52.1198 38.3872 52.6469C37.8536 53.174 37.2005 53.4375 36.4278 53.4375ZM47.4278 17.6875C46.6551 17.6875 46.0052 17.4207 45.4781 16.8872C44.951 16.3536 44.6875 15.7005 44.6875 14.9278C44.6875 14.1551 44.9543 13.5052 45.4878 12.9781C46.0214 12.451 46.6745 12.1875 47.4472 12.1875C48.2199 12.1875 48.8698 12.4543 49.3969 12.9878C49.924 13.5214 50.1875 14.1745 50.1875 14.9472C50.1875 15.7199 49.9207 16.3698 49.3872 16.8969C48.8536 17.424 48.2005 17.6875 47.4278 17.6875ZM47.4278 43.8125C46.6551 43.8125 46.0052 43.5457 45.4781 43.0122C44.951 42.4786 44.6875 41.8255 44.6875 41.0528C44.6875 40.2801 44.9543 39.6302 45.4878 39.1031C46.0214 38.576 46.6745 38.3125 47.4472 38.3125C48.2199 38.3125 48.8698 38.5793 49.3969 39.1128C49.924 39.6464 50.1875 40.2995 50.1875 41.0722C50.1875 41.8449 49.9207 42.4948 49.3872 43.0219C48.8536 43.549 48.2005 43.8125 47.4278 43.8125ZM51.5528 30.75C50.7801 30.75 50.1302 30.4832 49.6031 29.9497C49.076 29.4161 48.8125 28.763 48.8125 27.9903C48.8125 27.2176 49.0793 26.5677 49.6128 26.0406C50.1464 25.5135 50.7995 25.25 51.5722 25.25C52.3449 25.25 52.9948 25.5168 53.5219 26.0503C54.049 26.5839 54.3125 27.237 54.3125 28.0097C54.3125 28.7824 54.0457 29.4323 53.5122 29.9594C52.9786 30.4865 52.3255 30.75 51.5528 30.75ZM27.5 55.5C23.6958 55.5 20.1208 54.7781 16.775 53.3344C13.4292 51.8906 10.5188 49.9313 8.04375 47.4562C5.56875 44.9813 3.60938 42.0708 2.16563 38.725C0.721875 35.3792 0 31.8042 0 28C0 24.1958 0.721875 20.6208 2.16563 17.275C3.60938 13.9292 5.56875 11.0188 8.04375 8.54375C10.5188 6.06875 13.4292 4.10938 16.775 2.66563C20.1208 1.22188 23.6958 0.5 27.5 0.5V4.625C20.9917 4.625 15.4688 6.88944 10.9313 11.4183C6.39375 15.9473 4.125 21.4745 4.125 28C4.125 34.5255 6.38944 40.0527 10.9183 44.5817C15.4473 49.1106 20.9745 51.375 27.5 51.375V55.5ZM27.4939 32.8125C26.1688 32.8125 25.0365 32.3413 24.0969 31.3989C23.1573 30.4564 22.6875 29.3234 22.6875 28C22.6875 27.7278 22.7104 27.4421 22.7563 27.1428C22.8021 26.8434 22.8708 26.5831 22.9625 26.3617L17.4625 20.85L20.35 17.9625L25.9188 23.4625C26.1479 23.3708 26.675 23.2792 27.5 23.1875C28.8234 23.1875 29.9564 23.6593 30.8989 24.603C31.8413 25.5466 32.3125 26.681 32.3125 28.0061C32.3125 29.3312 31.8407 30.4635 30.897 31.4031C29.9534 32.3427 28.819 32.8125 27.4939 32.8125Z" />
</svg>
