<svg width="51" height="59" viewBox="0 0 51 59" fill="none" xmlns="http://www.w3.org/2000/svg">
<path d="M4.94375 31.6875H14.5C14.8667 31.6875 15.2219 31.7792 15.5656 31.9625C15.9094 32.1458 16.1729 32.4208 16.3563 32.7875L20 40.1437L29.1438 21.7875C29.5104 21.0083 30.1292 20.6187 31 20.6187C31.8708 20.6187 32.4896 21.0083 32.8563 21.7875L37.8063 31.6875H46.0563C45.5521 26.4167 43.3521 21.9937 39.4562 18.4188C35.5604 14.8438 30.9083 13.0563 25.5 13.0563C20.0917 13.0563 15.4396 14.8438 11.5437 18.4188C7.64792 21.9937 5.44792 26.4167 4.94375 31.6875ZM25.5 54.3063C30.9083 54.3063 35.549 52.5302 39.4219 48.9781C43.2948 45.426 45.4833 41.0375 45.9875 35.8125H36.5C36.1333 35.8125 35.7781 35.7208 35.4344 35.5375C35.0906 35.3542 34.8271 35.0792 34.6437 34.7125L31 27.3563L21.8563 45.7125C21.4896 46.4917 20.8708 46.8813 20 46.8813C19.1292 46.8813 18.5104 46.4917 18.1438 45.7125L13.1938 35.8125H5.0125C5.51667 41.0375 7.70521 45.426 11.5781 48.9781C15.451 52.5302 20.0917 54.3063 25.5 54.3063ZM25.5 58.4313C22.1083 58.4313 18.9115 57.7781 15.9094 56.4719C12.9073 55.1656 10.2833 53.3896 8.0375 51.1437C5.79167 48.8979 4.01562 46.274 2.70938 43.2719C1.40312 40.2698 0.75 37.0729 0.75 33.6813H4.875C4.875 39.4104 6.88021 44.2802 10.8906 48.2906C14.901 52.301 19.7708 54.3063 25.5 54.3063C31.2292 54.3063 36.099 52.301 40.1094 48.2906C44.1198 44.2802 46.125 39.4104 46.125 33.6813H50.25C50.25 37.0729 49.5969 40.2698 48.2906 43.2719C46.9844 46.274 45.2083 48.8979 42.9625 51.1437C40.7167 53.3896 38.0927 55.1656 35.0906 56.4719C32.0885 57.7781 28.8917 58.4313 25.5 58.4313ZM0.75 33.6813C0.75 30.2896 1.40312 27.0927 2.70938 24.0906C4.01562 21.0885 5.79167 18.4646 8.0375 16.2188C10.2833 13.9729 12.9073 12.1969 15.9094 10.8906C18.9115 9.58438 22.1083 8.93125 25.5 8.93125C28.5708 8.93125 31.4583 9.44688 34.1625 10.4781C36.8667 11.5094 39.2729 12.9417 41.3813 14.775L44.8875 11.2688L47.775 14.1562L44.2687 17.6625C45.9188 19.4958 47.3281 21.7188 48.4969 24.3313C49.6656 26.9438 50.25 30.0604 50.25 33.6813H46.125C46.125 27.9521 44.1198 23.0823 40.1094 19.0719C36.099 15.0615 31.2292 13.0563 25.5 13.0563C19.7708 13.0563 14.901 15.0615 10.8906 19.0719C6.88021 23.0823 4.875 27.9521 4.875 33.6813H0.75ZM17.25 4.875V0.75H33.75V4.875H17.25ZM25.5 54.3063C19.7708 54.3063 14.901 52.301 10.8906 48.2906C6.88021 44.2802 4.875 39.4104 4.875 33.6813C4.875 27.9521 6.88021 23.0823 10.8906 19.0719C14.901 15.0615 19.7708 13.0563 25.5 13.0563C31.2292 13.0563 36.099 15.0615 40.1094 19.0719C44.1198 23.0823 46.125 27.9521 46.125 33.6813C46.125 39.4104 44.1198 44.2802 40.1094 48.2906C36.099 52.301 31.2292 54.3063 25.5 54.3063Z"/>
</svg>
