<svg width="60" height="55" viewBox="0 0 60 55"  xmlns="http://www.w3.org/2000/svg">
<path d="M27.5438 38.9625L42.875 23.6313L39.9188 20.675L27.5438 33.05L21.0813 26.5875L18.125 29.5438L27.5438 38.9625ZM30.4313 54.3625C27.0396 54.3625 23.8427 53.7208 20.8406 52.4375C17.8385 51.1542 15.226 49.401 13.0031 47.1781C10.7802 44.9552 9.01563 42.3427 7.70938 39.3406C6.40313 36.3385 5.75 33.1249 5.75 29.6996C5.75 26.2743 6.40313 23.066 7.70938 20.0746C9.01563 17.0832 10.7802 14.4646 13.0031 12.2188C15.226 9.97292 17.8385 8.20834 20.8406 6.925C23.8427 5.64167 27.0396 5 30.4313 5C33.8229 5 37.0198 5.64167 40.0219 6.925C43.024 8.20834 45.6479 9.97292 47.8938 12.2188C50.1396 14.4646 51.9042 17.0832 53.1875 20.0746C54.4708 23.066 55.1125 26.2743 55.1125 29.6996C55.1125 33.1249 54.4708 36.3385 53.1875 39.3406C51.9042 42.3427 50.1396 44.9552 47.8938 47.1781C45.6479 49.401 43.024 51.1542 40.0219 52.4375C37.0198 53.7208 33.8229 54.3625 30.4313 54.3625ZM12.2125 0.393753L15.1 3.28125L3.825 14.1438L0.9375 11.2563L12.2125 0.393753ZM48.65 0.393753L59.925 11.2563L57.0375 14.1438L45.7625 3.28125L48.65 0.393753ZM30.4342 50.2375C36.1614 50.2375 41.0188 48.2428 45.0063 44.2533C48.9938 40.2638 50.9875 35.4055 50.9875 29.6783C50.9875 23.9511 48.9928 19.0938 45.0033 15.1063C41.0138 11.1188 36.1555 9.125 30.4283 9.125C24.7011 9.125 19.8438 11.1197 15.8563 15.1092C11.8688 19.0987 9.875 23.957 9.875 29.6842C9.875 35.4114 11.8697 40.2688 15.8592 44.2563C19.8487 48.2438 24.707 50.2375 30.4342 50.2375Z" />
</svg>
